.
 
http://www.scenetime.com    -  Hottest private tracker on the net. !!!

Sign up will close shortly !!  Join now 

        Seed back for speed


...................................NFO:................................................. 
                          ______  _   _  _____ ______  _____  _____ 
                          | ___ \| | | ||  _  || ___ \|  _  |/  ___|
                          | |_/ /| |_| || | | || |_/ /| | | |\ `--. 
                          |  __/ |  _  || | | || ___ \| | | | `--. \
                          | |    | | | |\ \_/ /| |_/ /\ \_/ //\__/ /
                          \_|    \_| |_/ \___/ \____/  \___/ \____/ 
 
                              Proudly presents
   
                Night.Shift.1982.iNTERNAL.DVDRip.XviD-PHOBOS              
                                                                          
      Release Date .....: 11/Jul/2006                                     
      DVD RLS Date .....: 25/Aug/2011                                     
      Runtime ..........: 1:46:23                                         
      Language .........: English                                         
      Subs .............: English / French                                
      URL ..............: http://www.imdb.com/title/tt0084412/            
      File Size ........: CD1: 700MB / 50x15MB CD2: 701MB / 50x15MB       
                                                                          
      Summary   
                                                                          
      A nebbish of a morgue attendant gets shunted back to the night      
      shift where he is shackled with an obnoxious neophyte partner who   
      dreams of the "one great idea" for success. His life takes a        
      bizarre turn when a prostitute neighbour complains about the loss   
      of her pimp. His partner, upon hearing the situation, suggests that 
      they fill that opening themselves using the morgue at night as      
      their brothel. Against his better judgement, he gets talked into    
      the idea, only to find that it's more than his boss that has        
      objections to this bit of entrepreneurship.                         
                                                                          
     Tech Info  
                                                                          
      CD1:                                                                
      Video                                                               
      ID                               : 0                                
      Format                           : MPEG-4 Visual                    
      Format profile                   : Advanced Simple@L5               
      Format settings, BVOP            : 2                                
      Format settings, QPel            : No                               
      Format settings, GMC             : No warppoints                    
      Format settings, Matrix          : Default (H.263)                  
      Muxing mode                      : Packed bitstream                 
      Codec ID                         : XVID                             
      Codec ID/Hint                    : XviD                             
      Duration                         : 57mn 41s                         
      Bit rate                         : 1 536 Kbps                       
      Width                            : 640 pixels                       
      Height                           : 368 pixels                       
      Display aspect ratio             : 16:9                             
      Frame rate                       : 23.976 fps                       
      Color space                      : YUV                              
      Chroma subsampling               : 4:2:0                            
      Bit depth                        : 8 bits                           
      Scan type                        : Progressive                      
      Compression mode                 : Lossy                            
      Bits/(Pixel*Frame)               : 0.272                            
      Stream size                      : 634 MiB (91%)                    
      Writing library                  : XviD 1.2.1 (UTC 2008-12-04)      
                                                                          
      Audio                                                               
      ID                               : 1                                
      Format                           : MPEG Audio                       
      Format version                   : Version 1                        
      Format profile                   : Layer 3                          
      Mode                             : Joint stereo                     
      Mode extension                   : MS Stereo                        
      Codec ID                         : 55                               
      Codec ID/Hint                    : MP3                              
      Duration                         : 57mn 41s                         
      Bit rate mode                    : Variable                         
      Bit rate                         : 149 Kbps                         
      Minimum bit rate                 : 32.0 Kbps                        
      Channel(s)                       : 2 channels                       
      Sampling rate                    : 48.0 KHz                         
      Compression mode                 : Lossy                            
      Stream size                      : 61.0 MiB (9%)                    
      Alignment                        : Aligned on interleaves           
      Interleave, duration             : 24 ms (0.58 video frame)         
      Interleave, preload duration     : 421 ms                           
      Writing library                  : LAME3.98r                        
                                                                          
      CD2:                                                                
      Video                                                               
      ID                               : 0                                
      Format                           : MPEG-4 Visual                    
      Format profile                   : Advanced Simple@L5               
      Format settings, BVOP            : 2                                
      Format settings, QPel            : No                               
      Format settings, GMC             : No warppoints                    
      Format settings, Matrix          : Default (H.263)                  
      Muxing mode                      : Packed bitstream                 
      Codec ID                         : XVID                             
      Codec ID/Hint                    : XviD                             
      Duration                         : 48mn 42s                         
      Bit rate                         : 1 851 Kbps                       
      Width                            : 640 pixels                       
      Height                           : 368 pixels                       
      Display aspect ratio             : 16:9                             
      Frame rate                       : 23.976 fps                       
      Color space                      : YUV                              
      Chroma subsampling               : 4:2:0                            
      Bit depth                        : 8 bits                           
      Scan type                        : Progressive                      
      Compression mode                 : Lossy                            
      Bits/(Pixel*Frame)               : 0.328                            
      Stream size                      : 645 MiB (92%)                    
      Writing library                  : XviD 1.2.1 (UTC 2008-12-04)      
                                                                          
      Audio                                                               
      ID                               : 1                                
      Format                           : MPEG Audio                       
      Format version                   : Version 1                        
      Format profile                   : Layer 3                          
      Mode                             : Joint stereo                     
      Mode extension                   : MS Stereo                        
      Codec ID                         : 55                               
      Codec ID/Hint                    : MP3                              
      Duration                         : 48mn 42s                         
      Bit rate mode                    : Variable                         
      Bit rate                         : 149 Kbps                         
      Channel(s)                       : 2 channels                       
      Sampling rate                    : 48.0 KHz                         
      Compression mode                 : Lossy                            
      Stream size                      : 52.1 MiB (7%)                    
      Alignment                        : Aligned on interleaves           
      Interleave, duration             : 24 ms (0.58 video frame)         
      Interleave, preload duration     : 558 ms                           
      Writing library                  : LAME3.98r                        
                                                                          
      Group Info   
                                                                          
      Our mission is to provide the scene with decent quality rips of     
      Movie classics.                                                     
      Greets fly out to GERUDO and everyone that helped us, you know who  
      you are guys.                                                       
      Looking for decent affil sites (no ovh plz) and rippers/cappers.    
      Ask around for us or write to deimostv@hush.ai